<svg width="28" height="28" xmlns="http://www.w3.org/2000/svg" xmlns:xlink="http://www.w3.org/1999/xlink" xml:space="preserve" overflow="hidden"><g transform="translate(-24 -423)"><path d="M47.9167 447.383 42.0833 441.842 47.9167 436.3 47.9167 447.383ZM29.0167 448.083 34.7917 442.629 35.2 442.25C36.775 440.763 39.2542 440.763 40.8292 442.25L41.2375 442.629 46.9833 448.083 29.0167 448.083ZM28.0833 436.271 33.9167 441.812 28.0833 447.354 28.0833 436.271ZM32.1667 428.833 43.8333 428.833 43.8333 438.546 41.2083 441.054C39.3125 439.596 36.6875 439.596 34.7917 441.054L32.1667 438.546 32.1667 428.833ZM45.5833 429.621 45.5833 427.083 41.5 427.083 38 424.167 34.5 427.083 30.4167 427.083 30.4167 429.65 26.3333 433.529 26.3333 449.833 49.6667 449.833 49.6667 433.529 45.5833 429.621Z" fill="#A6A6A6"/><path d="M38 435.337C37.475 435.337 37.0667 434.9 37.0667 434.404 37.0667 433.879 37.5042 433.471 38 433.471 38.525 433.471 38.9333 433.879 38.9333 434.404 38.9333 434.929 38.525 435.337 38 435.337ZM38 438.167C38.6708 438.167 39.3125 437.992 39.8958 437.7 40.1292 437.554 40.2167 437.263 40.1 437.029 39.9542 436.796 39.6625 436.708 39.4292 436.825 38.9917 437.058 38.4958 437.175 38 437.175 36.4542 437.175 35.1708 435.892 35.2 434.346 35.2 432.8 36.4833 431.517 38.0292 431.517 39.575 431.517 40.8583 432.771 40.8583 434.346L40.8583 435.279C40.3333 435.279 39.925 434.871 39.925 434.346 39.925 433.413 39.2833 432.625 38.3792 432.45 37.475 432.275 36.5708 432.771 36.25 433.617 35.9292 434.462 36.25 435.454 37.0375 435.921 37.825 436.388 38.8458 436.242 39.4583 435.542 39.8083 435.95 40.3333 436.183 40.8875 436.183 41.4125 436.183 41.8208 435.775 41.8208 435.25L41.8208 434.317C41.8208 432.217 40.1292 430.525 38.0292 430.525 35.9292 430.525 34.2375 432.217 34.2375 434.317 34.2083 436.446 35.9 438.138 38 438.167Z" fill="#A6A6A6"/></g></svg>