<svg width="26" height="26" xmlns="http://www.w3.org/2000/svg" xmlns:xlink="http://www.w3.org/1999/xlink" xml:space="preserve" overflow="hidden"><g transform="translate(-27 -467)"><path d="M37.6167 474.908C37.8333 474.692 37.9688 474.394 37.9688 474.069 37.9688 473.744 37.8333 473.446 37.6167 473.229L33.8792 469.519C33.6625 469.302 33.3646 469.167 33.0667 469.167 32.7687 469.167 32.4437 469.302 32.2271 469.519L31.8208 469.925 37.2104 475.315 37.6167 474.908Z" fill="#A6A6A6"/><path d="M43.0604 484.469C42.9521 484.577 42.7896 484.631 42.6542 484.631 42.5187 484.631 42.3563 484.577 42.2479 484.469L35.5312 477.779C35.4229 477.671 35.3688 477.508 35.3688 477.373 35.3688 477.237 35.4229 477.075 35.5312 476.967L36.3708 476.154 30.9813 470.765C30.6292 471.117 30.3042 471.442 30.0875 471.658 29.5458 472.173 29.2208 472.85 29.1938 473.581 29.1125 474.8 29.4104 475.965 29.8167 477.102 30.25 478.104 30.8188 479.052 31.4417 479.946 33.6625 483.277 36.4521 486.175 39.7021 488.477 40.2438 488.883 40.8125 489.235 41.4083 489.56 42.7625 490.237 44.1979 490.725 45.7417 490.833 46.7708 490.915 47.8 490.508 48.5042 489.75L49.2354 489.019 43.8729 483.629 43.0604 484.469Z" fill="#A6A6A6"/><path d="M50.4813 486.121 46.7438 482.383C46.5271 482.167 46.2292 482.031 45.9042 482.031 45.5792 482.031 45.2812 482.167 45.0646 482.383L44.6583 482.817 50.0479 488.206 50.4542 487.8C50.6708 487.583 50.8063 487.285 50.8063 486.96 50.8063 486.635 50.6979 486.337 50.4813 486.121Z" fill="#A6A6A6"/></g></svg>